<?xml version="1.0" encoding="UTF-8"?>
<svg xmlns="http://www.w3.org/2000/svg" version="1.1" viewBox="212.5 25.3 589.7 589.7">
  <defs>
    <style>
      .cls-1 {
        fill: #3355a6;
      }

      .cls-2 {
        fill: #59bda9;
      }

      .cls-3 {
        fill: #bf1e64;
      }

      .cls-4 {
        fill: #1f1f1f;
      }

      .cls-5 {
        fill: #1274b0;
      }
    </style>
  </defs>
  <!-- Generator: Adobe Illustrator 28.6.0, SVG Export Plug-In . SVG Version: 1.2.0 Build 709)  -->
  <g>
    <g id="Layer_2">
      <g id="Layer_1_copy_2">
        <rect class="cls-1" x="227.89" y="229.44" width="23.61" height="181.33"/>
        <rect class="cls-1" x="251.5" y="387.18" width="101.87" height="23.6"/>
        <rect class="cls-1" x="251.5" y="229.44" width="259.53" height="23.6"/>
        <circle class="cls-1" cx="521.17" cy="241.24" r="23.69"/>
        <circle class="cls-1" cx="367.84" cy="398.98" r="23.69"/>
      </g>
      <g id="Layer_2_copy_6">
        <g>
          <rect class="cls-2" x="417.4" y="39.29" width="181.33" height="23.61"/>
          <rect class="cls-2" x="417.4" y="62.9" width="23.6" height="101.87"/>
          <rect class="cls-2" x="575.13" y="62.9" width="23.6" height="283.22"/>
          <circle class="cls-2" cx="586.93" cy="346.12" r="23.69"/>
          <circle class="cls-2" cx="429.2" cy="179.23" r="23.69"/>
        </g>
      </g>
      <g id="Layer_2_copy_5">
        <g>
          <rect class="cls-3" x="763.25" y="229.44" width="23.61" height="181.33"/>
          <rect class="cls-3" x="661.38" y="229.44" width="101.87" height="23.6"/>
          <rect class="cls-3" x="503.72" y="387.18" width="259.53" height="23.6"/>
          <circle class="cls-3" cx="497.48" cy="398.98" r="23.69"/>
          <circle class="cls-3" cx="654.05" cy="241.24" r="23.69"/>
        </g>
      </g>
      <g id="Layer_2_copy_4">
        <g>
          <rect class="cls-5" x="417.23" y="577.42" width="181.33" height="23.61"/>
          <rect class="cls-5" x="574.96" y="478.54" width="23.6" height="101.87"/>
          <rect class="cls-5" x="417.23" y="297.19" width="23.6" height="283.22"/>
          <circle class="cls-5" cx="429.03" cy="297.19" r="23.69"/>
          <circle class="cls-5" cx="586.76" cy="464.07" r="23.69"/>
        </g>
      </g>
      <g>
        <path class="cls-4" d="M279.35,674.31h34.49l54.96,148.12h-38.36l-9.41-26.26h-49.8l-9.22,26.26h-37.63l54.96-148.12ZM310.71,764.65l-14.39-41.81-14.57,41.81h28.96Z"/>
        <path class="cls-4" d="M421.93,675.36h35.78v55.05h45.93v-55.05h35.78v147.07h-35.78v-55.89h-45.93v55.89h-35.78v-147.07Z"/>
        <path class="cls-4" d="M602.86,675.36h35.78v111.36h62.53v35.72h-98.31v-147.07Z"/>
        <path class="cls-4" d="M757.79,675.36h35.97v147.07h-35.97v-147.07Z"/>
      </g>
      <g>
        <path class="cls-4" d="M249.17,901.54h2.14l9.24,20.43h-2.46l-2.38-5.36h-11.04l-2.41,5.36h-2.35l9.24-20.43ZM254.82,914.55l-4.61-10.34-4.64,10.34h9.24Z"/>
        <path class="cls-4" d="M277.91,922.26c-1.62,0-3.11-.27-4.45-.8-1.34-.53-2.62-1.35-3.84-2.45l1.42-1.68c1.06.97,2.13,1.69,3.22,2.16,1.08.47,2.33.71,3.74.71s2.47-.32,3.29-.97c.82-.65,1.23-1.47,1.23-2.48v-.06c0-.46-.08-.88-.23-1.26s-.43-.72-.81-1.03c-.39-.31-.92-.59-1.61-.84-.69-.25-1.56-.49-2.63-.72-1.16-.25-2.17-.54-3.04-.87-.86-.33-1.57-.72-2.14-1.19-.56-.46-.98-1-1.25-1.62s-.41-1.34-.41-2.17v-.06c0-.79.16-1.53.49-2.2.33-.68.79-1.26,1.39-1.75.6-.49,1.3-.88,2.12-1.16.81-.28,1.7-.42,2.67-.42,1.49,0,2.79.21,3.9.62,1.11.42,2.19,1.04,3.23,1.87l-1.33,1.77c-.95-.77-1.9-1.33-2.85-1.68-.96-.35-1.96-.52-3-.52-1.33,0-2.39.31-3.16.94-.77.63-1.16,1.41-1.16,2.33v.06c0,.48.08.91.23,1.29.15.38.43.72.84,1.04.41.32.97.61,1.68.87.71.26,1.63.51,2.75.74,2.26.5,3.93,1.2,5,2.09s1.61,2.11,1.61,3.65v.06c0,.87-.17,1.66-.52,2.36s-.82,1.31-1.42,1.81c-.6.5-1.33.89-2.18,1.16-.85.27-1.78.41-2.78.41Z"/>
        <path class="cls-4" d="M302.83,922.26c-1.62,0-3.11-.27-4.45-.8-1.34-.53-2.62-1.35-3.84-2.45l1.42-1.68c1.06.97,2.13,1.69,3.22,2.16,1.08.47,2.33.71,3.74.71s2.47-.32,3.29-.97c.82-.65,1.23-1.47,1.23-2.48v-.06c0-.46-.08-.88-.23-1.26s-.43-.72-.81-1.03c-.39-.31-.92-.59-1.61-.84-.69-.25-1.56-.49-2.63-.72-1.16-.25-2.17-.54-3.04-.87-.86-.33-1.57-.72-2.14-1.19-.56-.46-.98-1-1.25-1.62s-.41-1.34-.41-2.17v-.06c0-.79.16-1.53.49-2.2.33-.68.79-1.26,1.39-1.75.6-.49,1.3-.88,2.12-1.16.81-.28,1.7-.42,2.67-.42,1.49,0,2.79.21,3.9.62,1.11.42,2.19,1.04,3.23,1.87l-1.33,1.77c-.95-.77-1.9-1.33-2.85-1.68-.96-.35-1.96-.52-3-.52-1.33,0-2.39.31-3.16.94-.77.63-1.16,1.41-1.16,2.33v.06c0,.48.08.91.23,1.29.15.38.43.72.84,1.04.41.32.97.61,1.68.87.71.26,1.63.51,2.75.74,2.26.5,3.93,1.2,5,2.09s1.61,2.11,1.61,3.65v.06c0,.87-.17,1.66-.52,2.36s-.82,1.31-1.42,1.81c-.6.5-1.33.89-2.18,1.16-.85.27-1.78.41-2.78.41Z"/>
        <path class="cls-4" d="M330.19,922.32c-1.55,0-2.95-.28-4.22-.84-1.27-.56-2.35-1.32-3.26-2.28-.91-.96-1.61-2.07-2.1-3.33-.49-1.26-.74-2.59-.74-3.98v-.06c0-1.39.25-2.72.75-4,.5-1.27,1.21-2.39,2.12-3.35.91-.96,2-1.72,3.27-2.29,1.27-.57,2.69-.85,4.23-.85s2.95.28,4.22.84c1.27.56,2.35,1.32,3.26,2.27.91.96,1.61,2.07,2.1,3.33s.74,2.59.74,3.98c.02.02.02.04,0,.06,0,1.39-.25,2.72-.75,4-.5,1.27-1.21,2.39-2.12,3.35-.91.96-2,1.72-3.27,2.29s-2.69.85-4.23.85ZM330.24,920.2c1.16,0,2.23-.22,3.2-.65.98-.43,1.81-1.03,2.51-1.78.7-.75,1.24-1.63,1.64-2.64.4-1,.59-2.09.59-3.25v-.06c0-1.16-.2-2.25-.59-3.26-.4-1.01-.95-1.9-1.67-2.65-.71-.75-1.56-1.35-2.54-1.8-.98-.44-2.04-.67-3.2-.67s-2.23.22-3.2.65c-.98.43-1.81,1.03-2.51,1.78-.7.75-1.24,1.63-1.64,2.64-.4,1-.59,2.09-.59,3.25v.06c0,1.16.2,2.25.59,3.26.4,1.01.95,1.9,1.67,2.65.71.75,1.56,1.35,2.54,1.8.98.44,2.04.67,3.2.67Z"/>
        <path class="cls-4" d="M361.04,922.32c-1.47,0-2.82-.27-4.06-.81-1.24-.54-2.31-1.28-3.22-2.22-.91-.94-1.62-2.04-2.13-3.32-.51-1.28-.77-2.64-.77-4.09v-.06c0-1.43.26-2.78.77-4.06.51-1.28,1.22-2.39,2.13-3.35.91-.96,1.99-1.71,3.25-2.26,1.26-.55,2.63-.83,4.11-.83.93,0,1.76.08,2.51.23.74.16,1.43.37,2.07.65.64.28,1.23.62,1.77,1.01.54.4,1.06.84,1.56,1.32l-1.56,1.68c-.87-.81-1.8-1.48-2.8-2-1-.52-2.19-.78-3.58-.78-1.12,0-2.16.21-3.12.64-.96.42-1.79,1.01-2.49,1.77-.71.75-1.26,1.64-1.65,2.65-.4,1.01-.59,2.1-.59,3.26v.06c0,1.18.2,2.27.59,3.29.4,1.01.95,1.9,1.65,2.65.7.75,1.54,1.35,2.49,1.78.96.43,1.99.65,3.12.65,1.39,0,2.59-.26,3.59-.77s1.99-1.23,2.96-2.16l1.51,1.48c-.52.54-1.07,1.03-1.64,1.46s-1.18.81-1.84,1.12c-.66.31-1.36.55-2.12.72s-1.59.26-2.52.26Z"/>
        <path class="cls-4" d="M379.73,901.69h2.29v20.28h-2.29v-20.28Z"/>
        <path class="cls-4" d="M401.84,901.54h2.14l9.24,20.43h-2.46l-2.38-5.36h-11.04l-2.41,5.36h-2.35l9.24-20.43ZM407.49,914.55l-4.61-10.34-4.64,10.34h9.24Z"/>
        <path class="cls-4" d="M428.96,903.8h-6.81v-2.12h15.91v2.12h-6.81v18.17h-2.29v-18.17Z"/>
        <path class="cls-4" d="M448.96,901.69h2.29v20.28h-2.29v-20.28Z"/>
        <path class="cls-4" d="M472.98,922.32c-1.55,0-2.95-.28-4.22-.84-1.27-.56-2.35-1.32-3.26-2.28-.91-.96-1.61-2.07-2.1-3.33-.49-1.26-.74-2.59-.74-3.98v-.06c0-1.39.25-2.72.75-4,.5-1.27,1.21-2.39,2.12-3.35.91-.96,2-1.72,3.27-2.29,1.27-.57,2.69-.85,4.23-.85s2.95.28,4.22.84c1.27.56,2.35,1.32,3.26,2.27.91.96,1.61,2.07,2.1,3.33s.74,2.59.74,3.98c.02.02.02.04,0,.06,0,1.39-.25,2.72-.75,4-.5,1.27-1.21,2.39-2.12,3.35-.91.96-2,1.72-3.27,2.29s-2.69.85-4.23.85ZM473.04,920.2c1.16,0,2.23-.22,3.2-.65.98-.43,1.81-1.03,2.51-1.78.7-.75,1.24-1.63,1.64-2.64.4-1,.59-2.09.59-3.25v-.06c0-1.16-.2-2.25-.59-3.26-.4-1.01-.95-1.9-1.67-2.65-.71-.75-1.56-1.35-2.54-1.8-.98-.44-2.04-.67-3.2-.67s-2.23.22-3.2.65c-.98.43-1.81,1.03-2.51,1.78-.7.75-1.24,1.63-1.64,2.64-.4,1-.59,2.09-.59,3.25v.06c0,1.16.2,2.25.59,3.26.4,1.01.95,1.9,1.67,2.65.71.75,1.56,1.35,2.54,1.8.98.44,2.04.67,3.2.67Z"/>
        <path class="cls-4" d="M494.57,901.69h2.14l12.78,16.26v-16.26h2.23v20.28h-1.83l-13.1-16.63v16.63h-2.23v-20.28Z"/>
        <path class="cls-4" d="M538.9,901.69h14.57v2.12h-12.29v7.27h10.98v2.06h-10.98v8.84h-2.29v-20.28Z"/>
        <path class="cls-4" d="M573.7,922.32c-1.55,0-2.95-.28-4.22-.84-1.27-.56-2.35-1.32-3.26-2.28-.91-.96-1.61-2.07-2.1-3.33-.49-1.26-.74-2.59-.74-3.98v-.06c0-1.39.25-2.72.75-4,.5-1.27,1.21-2.39,2.12-3.35s2-1.72,3.27-2.29c1.28-.57,2.68-.85,4.23-.85s2.95.28,4.22.84c1.27.56,2.35,1.32,3.26,2.27.91.96,1.61,2.07,2.1,3.33.49,1.27.74,2.59.74,3.98.02.02.02.04,0,.06,0,1.39-.25,2.72-.75,4-.5,1.27-1.21,2.39-2.12,3.35-.91.96-2,1.72-3.27,2.29-1.28.57-2.69.85-4.23.85ZM573.76,920.2c1.16,0,2.23-.22,3.2-.65s1.81-1.03,2.51-1.78c.7-.75,1.24-1.63,1.64-2.64.4-1,.59-2.09.59-3.25v-.06c0-1.16-.2-2.25-.59-3.26-.4-1.01-.95-1.9-1.67-2.65-.71-.75-1.56-1.35-2.54-1.8-.98-.44-2.04-.67-3.2-.67s-2.23.22-3.2.65-1.81,1.03-2.51,1.78c-.7.75-1.24,1.63-1.64,2.64-.4,1-.59,2.09-.59,3.25v.06c0,1.16.2,2.25.59,3.26.4,1.01.95,1.9,1.67,2.65.71.75,1.56,1.35,2.54,1.8s2.04.67,3.2.67Z"/>
        <path class="cls-4" d="M595.29,901.69h8.72c1.25,0,2.37.18,3.35.54.97.36,1.78.85,2.42,1.49.5.5.89,1.09,1.16,1.77s.41,1.42.41,2.23v.06c0,.85-.14,1.61-.41,2.27-.27.67-.65,1.25-1.14,1.74-.49.49-1.08.9-1.75,1.22-.68.32-1.41.55-2.2.68l6.23,8.29h-2.81l-5.88-7.88h-5.79v7.88h-2.29v-20.28ZM603.82,912.03c.76,0,1.45-.1,2.09-.29.64-.19,1.19-.47,1.66-.83.46-.36.83-.79,1.09-1.3s.39-1.1.39-1.75v-.06c0-1.26-.46-2.24-1.37-2.94s-2.19-1.06-3.83-1.06h-6.27v8.23h6.25Z"/>
        <path class="cls-4" d="M637.68,901.69h2.29v9.01h11.71v-9.01h2.29v20.28h-2.29v-9.13h-11.71v9.13h-2.29v-20.28Z"/>
        <path class="cls-4" d="M666.08,901.69h14.66v2.06h-12.37v6.98h11.07v2.06h-11.07v7.13h12.52v2.06h-14.81v-20.28Z"/>
        <path class="cls-4" d="M699.37,901.54h2.14l9.24,20.43h-2.46l-2.38-5.36h-11.04l-2.4,5.36h-2.35l9.24-20.43ZM705.02,914.55l-4.61-10.34-4.64,10.34h9.24Z"/>
        <path class="cls-4" d="M721.13,901.69h2.29v18.17h11.42v2.12h-13.71v-20.28Z"/>
        <path class="cls-4" d="M750.8,903.8h-6.81v-2.12h15.91v2.12h-6.81v18.17h-2.29v-18.17Z"/>
        <path class="cls-4" d="M770.59,901.69h2.29v9.01h11.71v-9.01h2.29v20.28h-2.29v-9.13h-11.71v9.13h-2.29v-20.28Z"/>
        <path class="cls-4" d="M241.66,936.46h2.29v18.17h11.42v2.12h-13.71v-20.28Z"/>
        <path class="cls-4" d="M265.97,936.46h14.66v2.06h-12.37v6.98h11.07v2.06h-11.07v7.13h12.52v2.06h-14.81v-20.28Z"/>
        <path class="cls-4" d="M299.27,936.31h2.14l9.24,20.43h-2.46l-2.38-5.36h-11.04l-2.41,5.36h-2.35l9.24-20.43ZM304.92,949.32l-4.61-10.34-4.64,10.34h9.24Z"/>
        <path class="cls-4" d="M321.03,936.46h8.72c1.26,0,2.37.18,3.35.54.98.36,1.78.85,2.42,1.49.5.5.89,1.09,1.16,1.77s.41,1.42.41,2.23v.06c0,.85-.14,1.61-.41,2.27-.27.67-.65,1.25-1.14,1.74-.49.49-1.08.9-1.75,1.22-.68.32-1.41.55-2.2.68l6.23,8.29h-2.81l-5.88-7.88h-5.8v7.88h-2.29v-20.28ZM329.56,946.8c.76,0,1.45-.1,2.09-.29.64-.19,1.19-.47,1.66-.83s.83-.79,1.09-1.3c.26-.51.39-1.1.39-1.75v-.06c0-1.26-.46-2.24-1.37-2.94-.91-.71-2.19-1.06-3.83-1.06h-6.27v8.23h6.25Z"/>
        <path class="cls-4" d="M348.35,936.46h2.14l12.78,16.26v-16.26h2.23v20.28h-1.83l-13.1-16.63v16.63h-2.23v-20.28Z"/>
        <path class="cls-4" d="M377.82,936.46h2.29v20.28h-2.29v-20.28Z"/>
        <path class="cls-4" d="M392.43,936.46h2.14l12.78,16.26v-16.26h2.23v20.28h-1.83l-13.1-16.63v16.63h-2.23v-20.28Z"/>
        <path class="cls-4" d="M431.11,957.09c-1.6,0-3.04-.27-4.3-.81-1.27-.54-2.35-1.28-3.25-2.23-.9-.95-1.58-2.05-2.06-3.32-.47-1.26-.71-2.62-.71-4.07v-.06c0-1.39.25-2.72.74-3.98.49-1.26,1.18-2.38,2.07-3.35.89-.97,1.96-1.73,3.2-2.3,1.25-.57,2.63-.85,4.16-.85.85,0,1.63.06,2.33.17.71.12,1.36.29,1.97.52.61.23,1.18.52,1.71.85.53.34,1.05.72,1.55,1.14l-1.48,1.74c-.39-.35-.79-.66-1.22-.94-.43-.28-.88-.52-1.38-.72-.49-.2-1.03-.36-1.62-.48-.59-.12-1.24-.17-1.96-.17-1.12,0-2.15.22-3.1.67-.95.44-1.76,1.04-2.43,1.8-.68.75-1.21,1.64-1.59,2.65-.39,1.01-.58,2.08-.58,3.2v.06c0,1.22.19,2.34.56,3.36.38,1.02.91,1.91,1.61,2.67.7.75,1.54,1.34,2.52,1.77s2.1.64,3.33.64c1.16,0,2.25-.2,3.27-.59,1.02-.4,1.88-.87,2.58-1.43v-5.04h-6.17v-2.06h8.37v8.08c-.95.85-2.11,1.58-3.49,2.19-1.38.61-2.93.91-4.65.91Z"/>
        <path class="cls-4" d="M473.36,936.31h2.14l9.24,20.43h-2.46l-2.38-5.36h-11.04l-2.41,5.36h-2.35l9.24-20.43ZM479.01,949.32l-4.61-10.34-4.64,10.34h9.24Z"/>
        <path class="cls-4" d="M495.12,936.46h2.14l12.78,16.26v-16.26h2.23v20.28h-1.83l-13.1-16.63v16.63h-2.23v-20.28Z"/>
        <path class="cls-4" d="M524.38,936.46h7.04c1.58,0,3.04.26,4.36.77s2.46,1.22,3.42,2.13c.96.91,1.69,1.98,2.22,3.2.52,1.23.78,2.55.78,3.98v.06c0,1.43-.26,2.76-.78,4-.52,1.24-1.26,2.31-2.22,3.22-.96.91-2.1,1.62-3.42,2.14s-2.78.78-4.36.78h-7.04v-20.28ZM531.42,954.63c1.27,0,2.43-.2,3.48-.61,1.04-.41,1.93-.97,2.65-1.68.72-.71,1.29-1.56,1.68-2.54s.59-2.02.59-3.14v-.06c0-1.12-.2-2.17-.59-3.14s-.96-1.83-1.68-2.55-1.61-1.29-2.65-1.71c-1.04-.42-2.2-.62-3.48-.62h-4.75v16.05h4.75Z"/>
        <path class="cls-4" d="M568.69,936.46h2.29v20.28h-2.29v-20.28Z"/>
        <path class="cls-4" d="M583.29,936.46h2.14l12.78,16.26v-16.26h2.23v20.28h-1.83l-13.1-16.63v16.63h-2.23v-20.28Z"/>
        <path class="cls-4" d="M612.56,936.46h14.57v2.12h-12.29v7.27h10.98v2.06h-10.98v8.84h-2.29v-20.28Z"/>
        <path class="cls-4" d="M637.94,936.46h14.66v2.06h-12.37v6.98h11.07v2.06h-11.07v7.13h12.52v2.06h-14.81v-20.28Z"/>
        <path class="cls-4" d="M663.73,936.46h8.72c1.25,0,2.37.18,3.35.54.97.36,1.78.85,2.42,1.49.5.5.89,1.09,1.16,1.77s.41,1.42.41,2.23v.06c0,.85-.14,1.61-.41,2.27-.27.67-.65,1.25-1.14,1.74-.49.49-1.08.9-1.75,1.22-.68.32-1.41.55-2.2.68l6.23,8.29h-2.81l-5.88-7.88h-5.79v7.88h-2.29v-20.28ZM672.26,946.8c.76,0,1.45-.1,2.09-.29.64-.19,1.19-.47,1.66-.83.46-.36.83-.79,1.09-1.3s.39-1.1.39-1.75v-.06c0-1.26-.46-2.24-1.37-2.94s-2.19-1.06-3.83-1.06h-6.27v8.23h6.25Z"/>
        <path class="cls-4" d="M691.05,936.46h14.66v2.06h-12.37v6.98h11.07v2.06h-11.07v7.13h12.52v2.06h-14.81v-20.28Z"/>
        <path class="cls-4" d="M716.84,936.46h2.14l12.78,16.26v-16.26h2.23v20.28h-1.83l-13.1-16.63v16.63h-2.23v-20.28Z"/>
        <path class="cls-4" d="M755.38,957.09c-1.47,0-2.82-.27-4.06-.81-1.24-.54-2.31-1.28-3.22-2.22-.91-.94-1.62-2.04-2.13-3.32s-.77-2.64-.77-4.09v-.06c0-1.43.26-2.78.77-4.06.51-1.28,1.22-2.39,2.13-3.35.91-.96,1.99-1.71,3.25-2.26,1.26-.55,2.63-.83,4.11-.83.93,0,1.76.08,2.51.23.74.16,1.43.37,2.07.65.64.28,1.23.62,1.77,1.01.54.4,1.06.84,1.56,1.32l-1.56,1.68c-.87-.81-1.8-1.48-2.8-2s-2.19-.78-3.58-.78c-1.12,0-2.16.21-3.12.64s-1.79,1.01-2.49,1.77c-.71.75-1.26,1.64-1.65,2.65-.4,1.01-.59,2.1-.59,3.26v.06c0,1.18.2,2.27.59,3.29.4,1.01.95,1.9,1.65,2.65.71.75,1.54,1.35,2.49,1.78s1.99.65,3.12.65c1.39,0,2.59-.26,3.59-.77,1-.51,1.99-1.23,2.96-2.16l1.51,1.48c-.52.54-1.07,1.03-1.64,1.46-.57.43-1.18.81-1.84,1.12-.66.31-1.36.55-2.12.72-.75.17-1.59.26-2.52.26Z"/>
        <path class="cls-4" d="M773.87,936.46h14.66v2.06h-12.37v6.98h11.07v2.06h-11.07v7.13h12.52v2.06h-14.81v-20.28Z"/>
      </g>
    </g>
  </g>
</svg>