<?xml version="1.0" encoding="UTF-8"?>
<svg xmlns="http://www.w3.org/2000/svg" version="1.1" viewBox="24.0 393.9 938.7 295.2">
  <defs>
    <style>
      .cls-1 {
        fill: #f4f4f5;
      }
    </style>
  </defs>
  <!-- Generator: Adobe Illustrator 28.6.0, SVG Export Plug-In . SVG Version: 1.2.0 Build 709)  -->
  <g>
    <g id="Layer_24">
      <g id="Layer_1_copy_6">
        <rect class="cls-1" x="34.04" y="492.68" width="11.02" height="84.64"/>
        <rect class="cls-1" x="45.07" y="566.31" width="47.55" height="11.02"/>
        <rect class="cls-1" x="45.07" y="492.68" width="121.14" height="11.02"/>
        <circle class="cls-1" cx="170.94" cy="498.19" r="11.06"/>
        <circle class="cls-1" cx="99.37" cy="571.82" r="11.06"/>
      </g>
      <g id="Layer_2_copy_14">
        <g>
          <rect class="cls-1" x="122.5" y="403.92" width="84.64" height="11.02"/>
          <rect class="cls-1" x="122.5" y="414.94" width="11.02" height="47.55"/>
          <rect class="cls-1" x="196.12" y="414.94" width="11.02" height="132.2"/>
          <circle class="cls-1" cx="201.63" cy="547.14" r="11.06"/>
          <circle class="cls-1" cx="128.01" cy="469.25" r="11.06"/>
        </g>
      </g>
      <g id="Layer_2_copy_13">
        <g>
          <rect class="cls-1" x="283.93" y="492.68" width="11.02" height="84.64"/>
          <rect class="cls-1" x="236.38" y="492.68" width="47.55" height="11.02"/>
          <rect class="cls-1" x="162.79" y="566.31" width="121.14" height="11.02"/>
          <circle class="cls-1" cx="159.88" cy="571.82" r="11.06"/>
          <circle class="cls-1" cx="232.96" cy="498.19" r="11.06"/>
        </g>
      </g>
      <g id="Layer_2_copy_12">
        <g>
          <rect class="cls-1" x="122.42" y="655.11" width="84.64" height="11.02"/>
          <rect class="cls-1" x="196.05" y="608.95" width="11.02" height="47.55"/>
          <rect class="cls-1" x="122.42" y="524.3" width="11.02" height="132.2"/>
          <circle class="cls-1" cx="127.93" cy="524.3" r="11.06"/>
          <circle class="cls-1" cx="201.55" cy="602.2" r="11.06"/>
        </g>
      </g>
      <g>
        <path class="cls-1" d="M413.64,414.82h36.14l57.6,155.23h-40.2l-9.86-27.52h-52.19l-9.67,27.52h-39.43l57.6-155.23ZM446.5,509.5l-15.08-43.82-15.27,43.82h30.35Z"/>
        <path class="cls-1" d="M563.05,415.92h37.5v57.69h48.13v-57.69h37.5v154.13h-37.5v-58.57h-48.13v58.57h-37.5v-154.13Z"/>
        <path class="cls-1" d="M752.66,415.92h37.5v116.7h65.52v37.43h-103.02v-154.13Z"/>
        <path class="cls-1" d="M915.02,415.92h37.69v154.13h-37.69v-154.13Z"/>
      </g>
      <g>
        <path class="cls-1" d="M363.31,620h3.51l9.49,21.73h-4.01l-2.19-5.21h-10.2l-2.22,5.21h-3.88l9.49-21.73ZM368.73,633.16l-3.73-8.63-3.7,8.63h7.43Z"/>
        <path class="cls-1" d="M394.99,642.04c-1.66,0-3.26-.28-4.78-.85s-2.93-1.43-4.22-2.6l2.28-2.71c1.05.9,2.11,1.6,3.17,2.08,1.07.48,2.28.72,3.64.72,1.17,0,2.1-.25,2.79-.74.69-.49,1.03-1.15,1.03-1.97v-.06c0-.39-.07-.73-.2-1.03-.13-.3-.38-.58-.74-.85-.36-.27-.86-.51-1.48-.74-.63-.23-1.45-.45-2.46-.68-1.15-.27-2.18-.57-3.07-.91-.9-.34-1.65-.75-2.26-1.23-.61-.48-1.07-1.07-1.39-1.77s-.48-1.54-.48-2.53v-.06c0-.92.18-1.77.55-2.54s.87-1.43,1.51-1.97c.64-.54,1.41-.97,2.32-1.28s1.89-.46,2.96-.46c1.58,0,3,.23,4.27.69,1.26.46,2.45,1.13,3.56,2.02l-2.03,2.87c-.99-.72-1.96-1.27-2.93-1.65-.97-.38-1.94-.57-2.93-.57-1.11,0-1.97.25-2.59.74-.62.49-.92,1.1-.92,1.82v.06c0,.41.07.78.22,1.09.14.32.41.61.79.86.38.26.91.5,1.58.72.67.23,1.52.46,2.55.71,1.13.29,2.14.61,3.01.96.88.35,1.6.78,2.18,1.28.58.5,1.01,1.09,1.31,1.76.3.67.45,1.44.45,2.33v.06c0,1.01-.19,1.91-.57,2.71-.38.8-.9,1.48-1.57,2.03-.67.55-1.48.98-2.42,1.26-.94.29-1.98.43-3.11.43Z"/>
        <path class="cls-1" d="M422.11,642.04c-1.66,0-3.26-.28-4.78-.85s-2.93-1.43-4.22-2.6l2.28-2.71c1.05.9,2.11,1.6,3.17,2.08,1.07.48,2.28.72,3.64.72,1.17,0,2.1-.25,2.79-.74.69-.49,1.03-1.15,1.03-1.97v-.06c0-.39-.07-.73-.2-1.03-.13-.3-.38-.58-.74-.85-.36-.27-.86-.51-1.48-.74-.63-.23-1.45-.45-2.46-.68-1.15-.27-2.18-.57-3.07-.91-.9-.34-1.65-.75-2.26-1.23-.61-.48-1.07-1.07-1.39-1.77s-.48-1.54-.48-2.53v-.06c0-.92.18-1.77.55-2.54s.87-1.43,1.51-1.97c.64-.54,1.41-.97,2.32-1.28s1.89-.46,2.96-.46c1.58,0,3,.23,4.27.69,1.26.46,2.45,1.13,3.56,2.02l-2.03,2.87c-.99-.72-1.96-1.27-2.93-1.65-.97-.38-1.94-.57-2.93-.57-1.11,0-1.97.25-2.59.74-.62.49-.92,1.1-.92,1.82v.06c0,.41.07.78.22,1.09.14.32.41.61.79.86.38.26.91.5,1.58.72.67.23,1.52.46,2.55.71,1.13.29,2.14.61,3.01.96.88.35,1.6.78,2.18,1.28.58.5,1.01,1.09,1.31,1.76.3.67.45,1.44.45,2.33v.06c0,1.01-.19,1.91-.57,2.71-.38.8-.9,1.48-1.57,2.03-.67.55-1.48.98-2.42,1.26-.94.29-1.98.43-3.11.43Z"/>
        <path class="cls-1" d="M451.95,642.1c-1.66,0-3.19-.29-4.56-.88-1.38-.59-2.56-1.38-3.54-2.39s-1.76-2.18-2.31-3.53c-.55-1.34-.83-2.78-.83-4.3v-.06c0-1.52.28-2.95.83-4.3.55-1.34,1.33-2.53,2.34-3.54,1.01-1.02,2.2-1.82,3.57-2.42,1.38-.6,2.9-.89,4.56-.89s3.18.29,4.56.88c1.38.59,2.56,1.38,3.54,2.39s1.76,2.18,2.31,3.53.83,2.78.83,4.3v.06c0,1.52-.28,2.95-.83,4.3s-1.34,2.53-2.34,3.54c-1.01,1.02-2.2,1.82-3.57,2.42-1.38.6-2.9.89-4.56.89ZM452.01,638.62c1.06,0,2.04-.2,2.93-.6.89-.4,1.65-.94,2.29-1.63.63-.69,1.13-1.5,1.49-2.42.36-.92.54-1.91.54-2.96v-.06c0-1.05-.18-2.04-.54-2.97-.36-.93-.86-1.75-1.5-2.43-.64-.69-1.42-1.24-2.32-1.65-.9-.41-1.88-.62-2.95-.62s-2.04.2-2.93.6-1.65.95-2.29,1.63c-.63.69-1.13,1.49-1.49,2.42-.36.92-.54,1.91-.54,2.96v.06c0,1.05.18,2.04.54,2.97.36.94.86,1.75,1.5,2.43.64.69,1.42,1.24,2.32,1.65s1.88.62,2.95.62Z"/>
        <path class="cls-1" d="M485.29,642.1c-1.58,0-3.04-.29-4.38-.86-1.34-.57-2.49-1.36-3.48-2.36-.98-1-1.75-2.17-2.31-3.53-.56-1.36-.84-2.8-.84-4.35v-.06c0-1.54.27-2.98.82-4.33.55-1.35,1.32-2.53,2.31-3.54.99-1.02,2.17-1.82,3.52-2.4,1.36-.59,2.86-.88,4.5-.88.99,0,1.88.08,2.7.25.81.17,1.56.4,2.23.69.68.3,1.3.65,1.88,1.06.57.41,1.12.86,1.63,1.36l-2.43,2.8c-.86-.8-1.78-1.45-2.74-1.94s-2.06-.74-3.3-.74c-1.03,0-1.98.2-2.85.6s-1.63.95-2.26,1.63-1.13,1.49-1.48,2.42-.52,1.91-.52,2.96v.06c0,1.05.17,2.04.52,2.97.35.94.84,1.75,1.48,2.45.64.7,1.39,1.25,2.26,1.65.87.4,1.82.6,2.85.6,1.31,0,2.44-.25,3.39-.75.95-.5,1.88-1.19,2.8-2.05l2.43,2.47c-.55.6-1.14,1.12-1.74,1.59-.61.46-1.26.86-1.96,1.2s-1.46.6-2.3.77c-.83.17-1.75.26-2.76.26Z"/>
        <path class="cls-1" d="M505.6,620.16h3.76v21.57h-3.76v-21.57Z"/>
        <path class="cls-1" d="M530.19,620h3.51l9.49,21.73h-4.01l-2.19-5.21h-10.2l-2.22,5.21h-3.88l9.49-21.73ZM535.62,633.16l-3.73-8.63-3.7,8.63h7.43Z"/>
        <path class="cls-1" d="M559.59,623.67h-6.84v-3.51h17.51v3.51h-6.84v18.06h-3.82v-18.06Z"/>
        <path class="cls-1" d="M581.88,620.16h3.76v21.57h-3.76v-21.57Z"/>
        <path class="cls-1" d="M609.12,642.1c-1.66,0-3.19-.29-4.56-.88-1.38-.59-2.56-1.38-3.54-2.39s-1.76-2.18-2.31-3.53c-.55-1.34-.83-2.78-.83-4.3v-.06c0-1.52.28-2.95.83-4.3.55-1.34,1.33-2.53,2.34-3.54,1.01-1.02,2.2-1.82,3.57-2.42,1.38-.6,2.9-.89,4.56-.89s3.18.29,4.56.88c1.38.59,2.56,1.38,3.54,2.39s1.76,2.18,2.31,3.53.83,2.78.83,4.3v.06c0,1.52-.28,2.95-.83,4.3s-1.34,2.53-2.34,3.54c-1.01,1.02-2.2,1.82-3.57,2.42-1.38.6-2.9.89-4.56.89ZM609.18,638.62c1.06,0,2.04-.2,2.93-.6.89-.4,1.65-.94,2.29-1.63.63-.69,1.13-1.5,1.49-2.42.36-.92.54-1.91.54-2.96v-.06c0-1.05-.18-2.04-.54-2.97-.36-.93-.86-1.75-1.5-2.43-.64-.69-1.42-1.24-2.32-1.65-.9-.41-1.88-.62-2.95-.62s-2.04.2-2.93.6-1.65.95-2.29,1.63c-.63.69-1.13,1.49-1.49,2.42-.36.92-.54,1.91-.54,2.96v.06c0,1.05.18,2.04.54,2.97.36.94.86,1.75,1.5,2.43.64.69,1.42,1.24,2.32,1.65s1.88.62,2.95.62Z"/>
        <path class="cls-1" d="M632.42,620.16h3.51l11.53,14.92v-14.92h3.76v21.57h-3.17l-11.87-15.35v15.35h-3.76v-21.57Z"/>
        <path class="cls-1" d="M680.8,620.16h16.03v3.42h-12.27v5.95h10.88v3.42h-10.88v8.78h-3.76v-21.57Z"/>
        <path class="cls-1" d="M718.71,642.1c-1.66,0-3.19-.29-4.56-.88-1.38-.59-2.56-1.38-3.54-2.39s-1.76-2.18-2.31-3.53c-.55-1.34-.83-2.78-.83-4.3v-.06c0-1.52.28-2.95.83-4.3.55-1.34,1.33-2.53,2.34-3.54,1.01-1.02,2.2-1.82,3.57-2.42,1.38-.6,2.9-.89,4.56-.89s3.18.29,4.56.88c1.38.59,2.56,1.38,3.54,2.39s1.76,2.18,2.31,3.53.83,2.78.83,4.3v.06c0,1.52-.28,2.95-.83,4.3s-1.34,2.53-2.34,3.54c-1.01,1.02-2.2,1.82-3.57,2.42-1.38.6-2.9.89-4.56.89ZM718.77,638.62c1.06,0,2.04-.2,2.93-.6.89-.4,1.65-.94,2.29-1.63.63-.69,1.13-1.5,1.49-2.42.36-.92.54-1.91.54-2.96v-.06c0-1.05-.18-2.04-.54-2.97-.36-.93-.86-1.75-1.5-2.43-.64-.69-1.42-1.24-2.32-1.65-.9-.41-1.88-.62-2.95-.62s-2.04.2-2.93.6-1.65.95-2.29,1.63c-.63.69-1.13,1.49-1.49,2.42-.36.92-.54,1.91-.54,2.96v.06c0,1.05.18,2.04.54,2.97.36.94.86,1.75,1.5,2.43.64.69,1.42,1.24,2.32,1.65s1.88.62,2.95.62Z"/>
        <path class="cls-1" d="M742.01,620.16h9.62c1.36,0,2.56.19,3.61.57,1.05.38,1.92.91,2.62,1.59.58.6,1.02,1.28,1.33,2.07.31.78.46,1.64.46,2.59v.06c0,.88-.13,1.68-.39,2.39-.26.71-.61,1.33-1.06,1.88-.45.54-.99,1.01-1.62,1.39-.63.38-1.32.67-2.08.88l5.82,8.17h-4.47l-5.32-7.52h-4.76v7.52h-3.76v-21.57ZM751.34,630.85c1.36,0,2.44-.32,3.25-.97s1.21-1.53,1.21-2.65v-.06c0-1.18-.39-2.07-1.17-2.68s-1.89-.91-3.31-.91h-5.53v7.27h5.57Z"/>
        <path class="cls-1" d="M788.33,620.16h3.76v8.97h10.36v-8.97h3.76v21.57h-3.76v-9.09h-10.36v9.09h-3.76v-21.57Z"/>
        <path class="cls-1" d="M819.15,620.16h15.96v3.42h-12.21v5.55h10.82v3.42h-10.82v5.76h12.36v3.42h-16.12v-21.57Z"/>
        <path class="cls-1" d="M854.84,620h3.51l9.49,21.73h-4.01l-2.19-5.21h-10.2l-2.22,5.21h-3.88l9.49-21.73ZM860.26,633.16l-3.73-8.63-3.7,8.63h7.43Z"/>
        <path class="cls-1" d="M878.94,620.16h3.76v18.15h11.34v3.42h-15.1v-21.57Z"/>
        <path class="cls-1" d="M910.71,623.67h-6.84v-3.51h17.51v3.51h-6.84v18.06h-3.82v-18.06Z"/>
        <path class="cls-1" d="M932.78,620.16h3.76v8.97h10.36v-8.97h3.76v21.57h-3.76v-9.09h-10.36v9.09h-3.76v-21.57Z"/>
        <path class="cls-1" d="M355.67,657.14h3.76v18.15h11.34v3.42h-15.1v-21.57Z"/>
        <path class="cls-1" d="M382.14,657.14h15.96v3.42h-12.21v5.55h10.82v3.42h-10.82v5.76h12.36v3.42h-16.12v-21.57Z"/>
        <path class="cls-1" d="M417.83,656.99h3.51l9.49,21.73h-4.01l-2.19-5.21h-10.2l-2.22,5.21h-3.88l9.49-21.73ZM423.25,670.15l-3.73-8.63-3.7,8.63h7.43Z"/>
        <path class="cls-1" d="M441.93,657.14h9.62c1.36,0,2.56.19,3.61.57,1.05.38,1.92.91,2.62,1.59.58.6,1.02,1.28,1.33,2.06.31.78.46,1.64.46,2.59v.06c0,.88-.13,1.68-.39,2.39s-.61,1.34-1.06,1.88c-.45.54-.99,1.01-1.62,1.39-.63.38-1.32.67-2.08.88l5.82,8.17h-4.47l-5.32-7.52h-4.76v7.52h-3.76v-21.57ZM451.25,667.84c1.36,0,2.44-.33,3.25-.98.8-.65,1.21-1.53,1.21-2.65v-.06c0-1.18-.39-2.07-1.17-2.68-.78-.61-1.89-.91-3.31-.91h-5.53v7.27h5.57Z"/>
        <path class="cls-1" d="M471.61,657.14h3.51l11.53,14.92v-14.92h3.76v21.57h-3.17l-11.87-15.35v15.35h-3.76v-21.57Z"/>
        <path class="cls-1" d="M503.57,657.14h3.76v21.57h-3.76v-21.57Z"/>
        <path class="cls-1" d="M520.52,657.14h3.51l11.53,14.92v-14.92h3.76v21.57h-3.17l-11.87-15.35v15.35h-3.76v-21.57Z"/>
        <path class="cls-1" d="M562.49,679.08c-1.69,0-3.22-.28-4.59-.85-1.38-.57-2.55-1.35-3.53-2.34-.98-1-1.73-2.17-2.27-3.51-.53-1.34-.8-2.81-.8-4.39v-.06c0-1.5.27-2.93.82-4.28.55-1.36,1.32-2.54,2.31-3.56.99-1.02,2.17-1.82,3.54-2.42,1.37-.6,2.86-.89,4.48-.89.95,0,1.8.07,2.57.2.77.13,1.48.32,2.14.57.66.25,1.28.55,1.86.91s1.16.78,1.71,1.25l-2.4,2.87c-.41-.35-.83-.67-1.26-.96s-.88-.53-1.36-.72-.99-.35-1.56-.46c-.57-.11-1.19-.17-1.87-.17-.99,0-1.91.21-2.76.62-.85.41-1.59.96-2.22,1.65-.63.69-1.12,1.5-1.48,2.42s-.54,1.9-.54,2.93v.06c0,1.11.17,2.14.52,3.09.35.95.85,1.76,1.49,2.44.65.68,1.41,1.21,2.31,1.61.89.39,1.89.59,3,.59,1.03,0,1.98-.15,2.88-.45.89-.3,1.67-.7,2.32-1.19v-4.06h-5.52v-3.3h9.18v9.06c-.53.45-1.12.88-1.77,1.29-.65.41-1.35.77-2.1,1.08-.75.31-1.56.55-2.42.72-.86.17-1.77.26-2.71.26Z"/>
        <path class="cls-1" d="M608.1,656.99h3.51l9.49,21.73h-4.01l-2.19-5.21h-10.2l-2.22,5.21h-3.88l9.49-21.73ZM613.53,670.15l-3.73-8.63-3.7,8.63h7.43Z"/>
        <path class="cls-1" d="M632.2,657.14h3.51l11.53,14.92v-14.92h3.76v21.57h-3.17l-11.87-15.35v15.35h-3.76v-21.57Z"/>
        <path class="cls-1" d="M663.95,657.14h8.04c1.68,0,3.23.27,4.64.82,1.41.54,2.62,1.3,3.64,2.27,1.02.97,1.8,2.1,2.36,3.41s.83,2.72.83,4.24v.06c0,1.52-.28,2.94-.83,4.25-.55,1.32-1.34,2.46-2.36,3.42-1.02.97-2.23,1.73-3.64,2.28-1.41.55-2.95.83-4.64.83h-8.04v-21.57ZM671.96,675.29c1.13,0,2.16-.18,3.08-.54.92-.36,1.71-.87,2.36-1.52.65-.65,1.15-1.42,1.51-2.32.36-.9.54-1.87.54-2.92v-.06c0-1.05-.18-2.03-.54-2.94-.36-.91-.86-1.69-1.51-2.34-.65-.65-1.43-1.16-2.36-1.53-.92-.37-1.95-.56-3.08-.56h-4.25v14.73h4.25Z"/>
        <path class="cls-1" d="M712.3,657.14h3.76v21.57h-3.76v-21.57Z"/>
        <path class="cls-1" d="M729.25,657.14h3.51l11.53,14.92v-14.92h3.76v21.57h-3.17l-11.87-15.35v15.35h-3.76v-21.57Z"/>
        <path class="cls-1" d="M761,657.14h16.03v3.42h-12.27v5.95h10.88v3.42h-10.88v8.78h-3.76v-21.57Z"/>
        <path class="cls-1" d="M788.61,657.14h15.96v3.42h-12.21v5.55h10.82v3.42h-10.82v5.76h12.36v3.42h-16.12v-21.57Z"/>
        <path class="cls-1" d="M816.65,657.14h9.62c1.36,0,2.56.19,3.61.57,1.05.38,1.92.91,2.62,1.59.58.6,1.02,1.28,1.33,2.06.31.78.46,1.64.46,2.59v.06c0,.88-.13,1.68-.39,2.39s-.61,1.34-1.06,1.88c-.45.54-.99,1.01-1.62,1.39-.63.38-1.32.67-2.08.88l5.82,8.17h-4.47l-5.32-7.52h-4.76v7.52h-3.76v-21.57ZM825.98,667.84c1.36,0,2.44-.33,3.25-.98.8-.65,1.21-1.53,1.21-2.65v-.06c0-1.18-.39-2.07-1.17-2.68-.78-.61-1.89-.91-3.31-.91h-5.53v7.27h5.57Z"/>
        <path class="cls-1" d="M846.33,657.14h15.96v3.42h-12.21v5.55h10.82v3.42h-10.82v5.76h12.36v3.42h-16.12v-21.57Z"/>
        <path class="cls-1" d="M874.38,657.14h3.51l11.53,14.92v-14.92h3.76v21.57h-3.17l-11.87-15.35v15.35h-3.76v-21.57Z"/>
        <path class="cls-1" d="M916.17,679.08c-1.58,0-3.04-.29-4.38-.86-1.34-.58-2.49-1.36-3.48-2.36-.98-1-1.75-2.17-2.31-3.53-.56-1.36-.84-2.8-.84-4.35v-.06c0-1.54.27-2.98.82-4.33.55-1.35,1.32-2.53,2.31-3.54.99-1.02,2.17-1.82,3.52-2.4,1.36-.58,2.86-.88,4.5-.88.99,0,1.88.08,2.7.25.81.17,1.56.4,2.23.69.68.3,1.3.65,1.88,1.06.57.41,1.12.86,1.63,1.36l-2.43,2.8c-.86-.8-1.78-1.45-2.74-1.94-.97-.49-2.06-.74-3.3-.74-1.03,0-1.98.2-2.85.6-.87.4-1.63.95-2.26,1.63s-1.13,1.5-1.48,2.42c-.35.92-.52,1.91-.52,2.96v.06c0,1.05.17,2.04.52,2.97s.84,1.75,1.48,2.45,1.39,1.25,2.26,1.65,1.82.6,2.85.6c1.31,0,2.44-.25,3.39-.75.95-.5,1.88-1.19,2.8-2.05l2.43,2.47c-.55.6-1.14,1.12-1.74,1.59-.61.46-1.26.86-1.96,1.2s-1.46.6-2.3.77c-.83.17-1.75.26-2.76.26Z"/>
        <path class="cls-1" d="M936.26,657.14h15.96v3.42h-12.21v5.55h10.82v3.42h-10.82v5.76h12.36v3.42h-16.12v-21.57Z"/>
      </g>
    </g>
  </g>
</svg>